<?xml version="1.0" encoding="UTF-8"?>
<!--Generator: Apple Native CoreSVG 326-->
<!DOCTYPE svg
PUBLIC "-//W3C//DTD SVG 1.1//EN"
       "http://www.w3.org/Graphics/SVG/1.1/DTD/svg11.dtd">
<svg version="1.1" xmlns="http://www.w3.org/2000/svg" xmlns:xlink="http://www.w3.org/1999/xlink" viewBox="0 0 51.8933 51.5578">
 <g>
  <rect height="51.5578" opacity="0" width="51.8933" x="0" y="0"/>
  <path d="M35.9312 32.5641L35.9312 35.9473ZM39.3109 12.2133L39.3109 15.5965L42.7102 15.5965L42.7102 12.2133ZM35.9312 15.5965L35.9312 18.9957L39.3109 18.9957L39.3109 15.5965ZM32.532 18.9957L32.532 22.3789L35.9312 22.3789L35.9312 18.9957ZM29.1453 22.3789L29.1453 25.7746L32.532 25.7746L32.532 22.3789ZM25.7586 25.7746L25.7586 29.1773L29.1453 29.1773L29.1453 25.7746ZM22.3594 29.1773L22.3594 32.5641L25.7586 32.5641L25.7586 29.1773ZM18.9637 32.5641L18.9637 35.9473L22.3594 35.9473L22.3594 32.5641ZM15.5804 35.9473L15.5804 39.3465L18.9637 39.3465L18.9637 35.9473ZM12.1812 39.3465L12.1812 42.7422L15.5804 42.7422L15.5804 39.3465ZM15.5804 45.6301L16.2 46.1254L18.9637 46.1254L18.9637 42.7422L15.5804 42.7422ZM18.9637 39.3465L18.9637 42.7422L22.3594 42.7422L22.3594 39.3465ZM22.3594 35.9473L22.3594 39.3465L25.7586 39.3465L25.7586 35.9473ZM25.7586 32.5641L25.7586 35.9473L29.1453 35.9473L29.1453 32.5641ZM29.1453 29.1773L29.1453 32.5641L32.532 32.5641L32.532 29.1773ZM32.532 25.7746L32.532 29.1773L35.9312 29.1773L35.9312 25.7746ZM35.9312 22.3789L35.9312 25.7746L39.3109 25.7746L39.3109 22.3789ZM39.3109 18.9957L39.3109 22.3789L42.7102 22.3789L42.7102 18.9957ZM46.0934 18.8836L46.0934 22.3789L48.7594 22.3789L48.7594 18.8836ZM42.7102 22.3789L42.7102 25.7746L46.0934 25.7746L46.0934 22.3789ZM39.3109 25.7746L39.3109 29.1773L42.7102 29.1773L42.7102 25.7746ZM35.9312 29.1773L35.9312 32.5641L39.3109 32.5641L39.3109 29.1773ZM32.532 32.5641L32.532 35.9473L35.9312 35.9473L35.9312 32.5641ZM29.1453 35.9473L29.1453 39.3465L32.532 39.3465L32.532 35.9473ZM25.7586 39.3465L25.7586 42.7422L29.1453 42.7422L29.1453 39.3465ZM22.3594 42.7422L22.3594 46.1254L25.7586 46.1254L25.7586 42.7422ZM18.8676 46.1254L18.8676 48.7594L22.3594 48.7594L22.3594 46.1254ZM25.7586 46.1254L25.7586 48.9676L29.1453 48.9676L29.1453 46.1254ZM29.1453 42.7422L29.1453 46.1254L32.532 46.1254L32.532 42.7422ZM32.532 39.3465L32.532 42.7422L35.9312 42.7422L35.9312 39.3465ZM35.9312 35.9473L35.9312 39.3465L39.3109 39.3465L39.3109 35.9473ZM39.3109 32.5641L39.3109 35.9473L42.7102 35.9473L42.7102 32.5641ZM42.7102 29.1773L42.7102 32.5641L46.0934 32.5641L46.0934 29.1773ZM46.0934 25.7746L46.0934 29.1773L48.9676 29.1773L48.9676 25.7746ZM42.7102 35.9473L42.7102 39.3465L45.1965 39.3465L45.9492 35.9473ZM39.3109 39.3465L39.3109 42.7422L41.9254 42.7422L42.7102 42.0055L42.7102 39.3465ZM35.9312 42.7422L35.9312 45.9813L39.3109 45.2285L39.3109 42.7422ZM46.0934 16.4597L45.2941 15.5965L42.7102 15.5965L42.7102 18.9957L46.0934 18.9957ZM25.7531 51.5222C39.9754 51.5222 51.5222 39.9879 51.5222 25.7691C51.5222 11.5469 39.9754 0 25.7531 0C11.5309 0 0 11.5469 0 25.7691C0 39.9879 11.5309 51.5222 25.7531 51.5222ZM25.7531 47.0703C13.9765 47.0703 4.45192 37.5457 4.45192 25.7691C4.45192 13.9926 13.9765 4.46442 25.7531 4.46442C37.5297 4.46442 47.0543 13.9926 47.0543 25.7691C47.0543 37.5457 37.5297 47.0703 25.7531 47.0703Z" fill="black"/>
 </g>
</svg>
